<svg width="1024" height="1024" viewBox="0 0 1024 1024" fill="none" xmlns="http://www.w3.org/2000/svg">
<rect width="1024" height="1024" fill="#0B0C0F"/>
<path d="M195.736 664.784C180.717 663.419 170.648 659.835 165.528 654.032C160.408 647.888 157.848 641.573 157.848 635.088C157.848 630.992 158.701 626.384 160.408 621.264C162.115 616.144 163.821 612.56 165.528 610.512C181.571 590.715 211.608 555.899 255.64 506.064C299.672 456.229 329.197 422.949 344.216 406.224L324.248 405.2C306.157 404.176 290.968 403.664 278.68 403.664C274.243 403.664 262.979 404.517 244.888 406.224C233.624 407.931 223.384 408.784 214.168 408.784C200.856 408.784 191.128 407.589 184.984 405.2C179.181 402.469 175.597 399.397 174.232 395.984C173.208 392.571 172.696 387.792 172.696 381.648C172.696 377.211 174.403 372.773 177.816 368.336C181.571 363.557 186.008 360.827 191.128 360.144C204.781 358.437 223.043 356.901 245.912 355.536C268.781 353.829 287.384 352.976 301.72 352.976C345.069 352.976 375.619 355.195 393.368 359.632C397.805 360.997 401.56 364.411 404.632 369.872C407.704 375.333 409.24 379.6 409.24 382.672C409.24 386.768 408.557 391.035 407.192 395.472C406.168 399.909 404.632 403.664 402.584 406.736C398.147 414.587 387.907 428.923 371.864 449.744C355.821 470.224 338.755 490.875 320.664 511.696C301.549 534.224 281.923 556.581 261.784 578.768C241.987 600.955 229.187 615.12 223.384 621.264C232.941 620.923 247.619 620.069 267.416 618.704C299.501 616.656 323.565 615.632 339.608 615.632C352.237 615.632 366.232 616.485 381.592 618.192C397.293 619.899 409.069 623.312 416.92 628.432C419.309 629.797 421.528 633.723 423.576 640.208C425.965 646.693 427.16 651.984 427.16 656.08C427.16 660.517 424.941 664.443 420.504 667.856C416.408 671.269 410.605 672.976 403.096 672.976C402.413 672.976 394.904 672.293 380.568 670.928C350.872 667.515 331.245 665.808 321.688 665.808L285.336 666.32C268.952 667.003 256.493 667.344 247.96 667.344C227.139 667.344 209.731 666.491 195.736 664.784ZM703.3 589.008C716.271 601.979 726.511 613.243 734.02 622.8C741.871 632.016 745.796 640.037 745.796 646.864C745.796 656.421 743.065 663.589 737.604 668.368C732.484 673.147 725.999 675.536 718.148 675.536C712.687 675.536 707.055 672.805 701.252 667.344C695.449 661.883 690.159 656.08 685.38 649.936C680.601 643.792 677.529 639.867 676.164 638.16C668.313 628.603 652.953 609.488 630.084 580.816C607.556 551.803 591.855 530.981 582.98 518.352C580.249 520.059 576.153 523.472 570.692 528.592C568.644 530.299 563.353 534.736 554.82 541.904C546.287 548.731 536.9 555.728 526.66 562.896C526.66 564.944 527.172 580.304 528.196 608.976C528.879 630.139 529.22 643.963 529.22 650.448C529.22 655.909 527.343 661.541 523.588 667.344C519.833 672.805 514.201 675.536 506.692 675.536C495.769 675.536 487.919 673.659 483.14 669.904C478.361 666.149 475.46 660.688 474.436 653.52C471.705 637.136 470.34 620.923 470.34 604.88C470.34 587.131 471.705 561.189 474.436 527.056C477.167 494.971 478.532 470.907 478.532 454.864C478.532 448.72 478.191 439.845 477.508 428.24C477.167 419.024 476.143 410.491 474.436 402.64C473.071 391.717 472.388 384.037 472.388 379.6C472.388 368.677 474.777 360.827 479.556 356.048C484.335 351.269 491.673 348.88 501.572 348.88C509.081 348.88 515.225 351.099 520.004 355.536C525.124 359.632 528.025 365.264 528.708 372.432C530.415 401.445 531.268 423.973 531.268 440.016C530.927 447.867 530.244 458.96 529.22 473.296C528.537 487.291 527.855 496.336 527.172 500.432C539.119 491.557 563.012 470.736 598.852 437.968C635.033 404.859 659.268 382.501 671.556 370.896C673.263 369.189 676.164 366.288 680.26 362.192C684.697 357.755 688.793 354.683 692.548 352.976C696.303 351.269 700.399 350.416 704.836 350.416C710.98 350.416 716.271 353.317 720.708 359.12C725.487 364.581 727.876 370.555 727.876 377.04C727.876 380.795 726.34 384.891 723.268 389.328C720.537 393.424 715.588 399.056 708.42 406.224C683.503 432.165 655.855 459.131 625.476 487.12C633.327 499.749 646.297 518.011 664.388 541.904C682.82 565.456 695.791 581.157 703.3 589.008ZM853.304 645.84C853.304 654.373 849.891 662.395 843.064 669.904C836.237 677.072 828.728 680.656 820.536 680.656C810.979 680.656 802.275 678.096 794.424 672.976C786.573 667.515 782.648 660.688 782.648 652.496C782.648 639.525 785.037 629.968 789.816 623.824C794.936 617.68 802.445 614.608 812.344 614.608C823.949 614.608 833.677 617.509 841.528 623.312C849.379 628.773 853.304 636.283 853.304 645.84Z" fill="#FF1744"/>
</svg>
